<svg xmlns="http://www.w3.org/2000/svg" viewBox="0 0 161 30" width="161" height="30">
	<defs>
		<clipPath id="a">
			<path fill="#fff" d="M0 0h161v-30H0Z" data-name="Path 4" transform="translate(0 30)" />
		</clipPath>
	</defs>
	<g data-name="Group 16">
		<g clip-path="url(#a)" data-name="Group 4">
			<g data-name="Group 1">
				<path fill="#fff" d="M42.32 2.7h-4.44v4.07h-2.22v3.51h2.22v7.99c0 3.35 1.7 4.91 5.04 4.91h2.1v-3.79h-1.04a1.44 1.44 0 0 1-1.65-1.6v-7.51h2.71v-3.5h-2.72Z" data-name="Path 1" />
			</g>
			<g data-name="Group 2">
				<path fill="#fff" d="M51.24 8.92V6.79h-4.1v16.4h4.44v-8.17a4.61 4.61 0 0 1 1-3.25 3.86 3.86 0 0 1 2.94-1.03 4.37 4.37 0 0 1 .88.09V6.67l-.53-.04a4.98 4.98 0 0 0-4.63 2.29" data-name="Path 2" />
			</g>
			<g data-name="Group 3">
				<path fill="#fff" d="M70.13 8a7.94 7.94 0 0 0-5.38-1.6c-2.41 0-4.2.53-5.38 1.62a6.12 6.12 0 0 0-2 4.04h4.38c.18-1.35 1.15-2 2.9-2 1.97 0 2.94.78 2.94 2.32v.69h-3.24a10.07 10.07 0 0 0-5.54 1.22A4.56 4.56 0 0 0 57 18.33a5.18 5.18 0 0 0 1.4 3.75 5.79 5.79 0 0 0 4.35 1.48c2.56 0 4.31-.73 5.25-2.2v1.82h3.95V12.5A5.66 5.66 0 0 0 70.13 8m-2.53 8.6a3.6 3.6 0 0 1-.85 2.6 4.06 4.06 0 0 1-2.97.91c-1.66 0-2.5-.6-2.5-1.78a1.54 1.54 0 0 1 .9-1.57 8.4 8.4 0 0 1 2.76-.34h2.66Z" data-name="Path 3" />
			</g>
		</g>
		<g data-name="Group 5">
			<path fill="#fff" d="M80.54 17.84 76.56 6.8h-4.7l6.58 16.4h4.14l6.57-16.4h-4.6Z" data-name="Path 5" />
		</g>
		<g data-name="Group 6">
			<path fill="#fff" d="M89.35 10.61h3V23.2h4.45V6.79h-6.07Z" data-name="Path 6" />
		</g>
		<g data-name="Group 7">
			<path fill="#fff" d="M112.94 10.45V6.8H99.26v3.85h8.08l-8.2 8.9v3.66h13.93v-3.85h-8.36Z" data-name="Path 7" />
		</g>
		<g clip-path="url(#a)" data-name="Group 10">
			<g data-name="Group 8">
				<path fill="#fff" d="M123.34 6.4a8.21 8.21 0 0 0-6.22 2.47 8.46 8.46 0 0 0-2.37 6.1 8.4 8.4 0 0 0 2.37 6.08 8.24 8.24 0 0 0 6.22 2.5 8.22 8.22 0 0 0 6.23-2.47 8.46 8.46 0 0 0 2.38-6.1 8.46 8.46 0 0 0-2.38-6.1 8.21 8.21 0 0 0-6.22-2.48m3 11.99a3.9 3.9 0 0 1-3 1.25 3.82 3.82 0 0 1-2.97-1.25 4.82 4.82 0 0 1-1.2-3.41 4.8 4.8 0 0 1 1.16-3.42 3.9 3.9 0 0 1 3-1.25 3.9 3.9 0 0 1 3 1.25 4.8 4.8 0 0 1 1.16 3.42 4.8 4.8 0 0 1-1.15 3.4" data-name="Path 8" />
			</g>
			<g data-name="Group 9">
				<path fill="#fff" d="M142.11 6.75a4.46 4.46 0 0 0-4.29 2.29V6.78h-4.1v16.4h4.44v-8.04a4.6 4.6 0 0 1 1-3.25 3.86 3.86 0 0 1 2.95-1.04 12.4 12.4 0 0 1 1.53-.06l-1.47-4Z" data-name="Path 9" />
			</g>
		</g>
		<g data-name="Group 11">
			<path fill="#fff" d="m156.37 6.79-3.98 10.96-3.94-10.96h-4.73l6.48 16.13-1.79 4.32h4.39L161 6.79Z" data-name="Path 11" />
		</g>
		<path fill="#fff" d="M92.33 4.96h4.47V.7h-4.47Z" data-name="Path 12" />
		<g clip-path="url(#a)" data-name="Group 15">
			<g data-name="Group 12">
				<path fill="#fff" d="M18.42 18.44a4.91 4.91 0 0 0 .06-6.94 4.9 4.9 0 0 0-6.94.06 4.91 4.91 0 0 0-.05 6.94 4.9 4.9 0 0 0 6.93-.06" data-name="Path 13" />
			</g>
			<g data-name="Group 13">
				<path fill="#fff" d="m8.24 6.75 2.64 2.64a6.97 6.97 0 0 1 9.1.61 7 7 0 0 1 .6 9.1l2.64 2.65L29.96 15 14.98 0Z" data-name="Path 14" />
			</g>
			<g data-name="Group 14">
				<path fill="#fff" d="M9.99 20a7 7 0 0 1-.61-9.1L6.74 8.24 0 15l14.98 15 6.74-6.75-2.64-2.64a6.97 6.97 0 0 1-9.1-.61" data-name="Path 15" />
			</g>
		</g>
	</g>
</svg>
